<svg xmlns="http://www.w3.org/2000/svg" xmlns:xlink="http://www.w3.org/1999/xlink" width="500" zoomAndPan="magnify" viewBox="0 0 375 374.999991" height="500" preserveAspectRatio="xMidYMid meet" version="1.0"><defs><g/></defs><rect x="-37.5" width="450" fill="#ffffff" y="-37.499999" height="449.999989" fill-opacity="1"/><rect x="-37.5" width="450" fill="#fffaed" y="-37.499999" height="449.999989" fill-opacity="1"/><g fill="#c04f07" fill-opacity="1"><g transform="translate(59.671875, 209.999986)"><g><path d="M 1.625 3.078125 C 1.195312 -1.679688 0.914062 -6.445312 0.78125 -11.21875 C 0.644531 -16 0.65625 -20.75 0.8125 -25.46875 C 0.851562 -25.65625 0.976562 -25.953125 1.1875 -26.359375 C 1.40625 -26.765625 1.65625 -27.148438 1.9375 -27.515625 C 2.226562 -27.890625 2.554688 -28.144531 2.921875 -28.28125 C 3.296875 -28.414062 3.675781 -28.304688 4.0625 -27.953125 L 8.171875 -23.84375 L 19.609375 -5.046875 L 19.84375 -4.75 C 20.03125 -4.519531 20.25 -4.289062 20.5 -4.0625 C 20.75 -3.832031 21.007812 -3.648438 21.28125 -3.515625 C 21.550781 -3.378906 21.804688 -3.367188 22.046875 -3.484375 C 22.003906 -4.023438 21.929688 -4.828125 21.828125 -5.890625 C 21.734375 -6.953125 21.628906 -8.140625 21.515625 -9.453125 C 21.398438 -10.765625 21.285156 -12.164062 21.171875 -13.65625 C 21.054688 -15.144531 20.9375 -16.554688 20.8125 -17.890625 C 20.695312 -19.222656 20.601562 -20.429688 20.53125 -21.515625 C 20.457031 -22.597656 20.421875 -23.375 20.421875 -23.84375 C 20.378906 -24.257812 20.359375 -24.953125 20.359375 -25.921875 C 20.359375 -26.890625 20.40625 -27.960938 20.5 -29.140625 C 20.59375 -30.316406 20.753906 -31.535156 20.984375 -32.796875 C 21.222656 -34.054688 21.570312 -35.160156 22.03125 -36.109375 C 22.5 -37.054688 23.050781 -37.769531 23.6875 -38.25 C 24.332031 -38.726562 25.117188 -38.816406 26.046875 -38.515625 C 26.203125 -38.515625 26.382812 -38.40625 26.59375 -38.1875 C 26.800781 -37.976562 26.90625 -37.816406 26.90625 -37.703125 C 26.632812 -37.429688 26.34375 -37.101562 26.03125 -36.71875 C 25.726562 -36.332031 25.429688 -35.914062 25.140625 -35.46875 C 24.847656 -35.019531 24.554688 -34.570312 24.265625 -34.125 C 23.984375 -33.6875 23.800781 -33.253906 23.71875 -32.828125 C 23.675781 -32.398438 23.65625 -31.769531 23.65625 -30.9375 C 23.65625 -30.113281 23.644531 -29.148438 23.625 -28.046875 C 23.613281 -26.941406 23.613281 -25.804688 23.625 -24.640625 C 23.644531 -23.484375 23.65625 -22.347656 23.65625 -21.234375 L 23.65625 -18.4375 C 23.65625 -17.550781 23.675781 -16.914062 23.71875 -16.53125 C 23.71875 -16.257812 23.742188 -15.648438 23.796875 -14.703125 C 23.859375 -13.753906 23.9375 -12.726562 24.03125 -11.625 C 24.132812 -10.519531 24.234375 -9.484375 24.328125 -8.515625 C 24.421875 -7.554688 24.46875 -6.941406 24.46875 -6.671875 C 24.46875 -6.398438 24.476562 -5.9375 24.5 -5.28125 C 24.519531 -4.625 24.53125 -3.945312 24.53125 -3.25 C 24.53125 -2.550781 24.519531 -1.910156 24.5 -1.328125 C 24.476562 -0.753906 24.46875 -0.390625 24.46875 -0.234375 C 24.4375 -0.078125 24.359375 0.148438 24.234375 0.453125 C 24.117188 0.765625 23.945312 1.054688 23.71875 1.328125 C 23.488281 1.597656 23.238281 1.757812 22.96875 1.8125 C 22.695312 1.875 22.390625 1.734375 22.046875 1.390625 L 16.296875 -4.296875 L 5.734375 -21.40625 L 4.46875 -22.21875 L 4.46875 3.078125 C 4.46875 3.503906 4.332031 3.773438 4.0625 3.890625 C 3.789062 4.003906 3.488281 4.019531 3.15625 3.9375 C 2.832031 3.863281 2.515625 3.738281 2.203125 3.5625 C 1.890625 3.394531 1.695312 3.234375 1.625 3.078125 Z M 1.625 3.078125 "/></g></g></g><g fill="#c04f07" fill-opacity="1"><g transform="translate(87.800009, 209.999986)"><g><path d="M 27.84375 -5.109375 C 27.800781 -5.265625 27.671875 -5.539062 27.453125 -5.9375 C 27.242188 -6.34375 27.082031 -6.609375 26.96875 -6.734375 C 26.625 -6.878906 25.992188 -7.097656 25.078125 -7.390625 C 24.171875 -7.679688 23.195312 -8.007812 22.15625 -8.375 C 21.113281 -8.75 20.128906 -9.085938 19.203125 -9.390625 C 18.273438 -9.703125 17.613281 -9.914062 17.21875 -10.03125 C 17.144531 -10.070312 16.953125 -10.175781 16.640625 -10.34375 C 16.335938 -10.519531 15.988281 -10.710938 15.59375 -10.921875 C 15.207031 -11.140625 14.859375 -11.328125 14.546875 -11.484375 C 14.242188 -11.640625 14.035156 -11.71875 13.921875 -11.71875 C 13.335938 -11.71875 12.785156 -11.347656 12.265625 -10.609375 C 11.742188 -9.878906 11.210938 -8.984375 10.671875 -7.921875 C 10.128906 -6.859375 9.566406 -5.722656 8.984375 -4.515625 C 8.410156 -3.316406 7.753906 -2.222656 7.015625 -1.234375 C 6.285156 -0.253906 5.492188 0.503906 4.640625 1.046875 C 3.785156 1.585938 2.816406 1.703125 1.734375 1.390625 L 1.734375 -0.234375 C 1.972656 -0.503906 2.320312 -0.9375 2.78125 -1.53125 C 3.25 -2.132812 3.78125 -2.8125 4.375 -3.5625 C 4.976562 -4.320312 5.609375 -5.109375 6.265625 -5.921875 C 6.921875 -6.734375 7.535156 -7.523438 8.109375 -8.296875 C 8.691406 -9.066406 9.207031 -9.75 9.65625 -10.34375 C 10.101562 -10.945312 10.441406 -11.40625 10.671875 -11.71875 C 11.054688 -12.21875 11.125 -12.953125 10.875 -13.921875 C 10.625 -14.890625 10.238281 -15.914062 9.71875 -17 C 9.195312 -18.082031 8.632812 -19.171875 8.03125 -20.265625 C 7.4375 -21.367188 7.007812 -22.316406 6.75 -23.109375 C 6.5 -23.898438 6.519531 -24.46875 6.8125 -24.8125 C 7.101562 -25.164062 7.882812 -25.128906 9.15625 -24.703125 C 9.550781 -23.390625 10.144531 -22.035156 10.9375 -20.640625 C 11.726562 -19.253906 12.722656 -18.175781 13.921875 -17.40625 C 14.921875 -18.0625 15.863281 -18.9375 16.75 -20.03125 C 17.644531 -21.132812 18.476562 -22.390625 19.25 -23.796875 C 20.03125 -25.210938 20.738281 -26.710938 21.375 -28.296875 C 22.007812 -29.890625 22.585938 -31.457031 23.109375 -33 C 23.628906 -34.550781 24.082031 -36.019531 24.46875 -37.40625 C 24.863281 -38.800781 25.175781 -40 25.40625 -41 C 25.675781 -41.425781 26.03125 -41.765625 26.46875 -42.015625 C 26.914062 -42.265625 27.375 -42.46875 27.84375 -42.625 C 28.03125 -42.351562 28.160156 -41.664062 28.234375 -40.5625 C 28.316406 -39.46875 28.359375 -38.132812 28.359375 -36.5625 C 28.359375 -35 28.328125 -33.25 28.265625 -31.3125 C 28.210938 -29.382812 28.175781 -27.441406 28.15625 -25.484375 C 28.132812 -23.535156 28.144531 -21.632812 28.1875 -19.78125 C 28.226562 -17.925781 28.316406 -16.28125 28.453125 -14.84375 C 28.585938 -13.414062 28.796875 -12.253906 29.078125 -11.359375 C 29.367188 -10.472656 29.769531 -10.03125 30.28125 -10.03125 L 35.203125 -10.03125 L 35.203125 -7.140625 L 31.09375 -7.140625 C 30.550781 -7.140625 30.335938 -6.78125 30.453125 -6.0625 C 30.566406 -5.34375 30.851562 -4.441406 31.3125 -3.359375 C 31.78125 -2.273438 32.3125 -1.066406 32.90625 0.265625 C 33.507812 1.597656 34.023438 2.878906 34.453125 4.109375 C 34.878906 5.347656 35.117188 6.460938 35.171875 7.453125 C 35.234375 8.441406 34.957031 9.144531 34.34375 9.5625 C 34.21875 9.644531 33.941406 9.6875 33.515625 9.6875 C 33.097656 9.6875 32.8125 9.644531 32.65625 9.5625 C 32.539062 8.988281 32.25 8.003906 31.78125 6.609375 C 31.320312 5.222656 30.828125 3.742188 30.296875 2.171875 C 29.773438 0.609375 29.273438 -0.859375 28.796875 -2.234375 C 28.316406 -3.609375 28 -4.566406 27.84375 -5.109375 Z M 19.65625 -12.46875 C 19.851562 -12.351562 20.210938 -12.1875 20.734375 -11.96875 C 21.253906 -11.757812 21.8125 -11.519531 22.40625 -11.25 C 23.007812 -10.976562 23.601562 -10.734375 24.1875 -10.515625 C 24.769531 -10.304688 25.175781 -10.144531 25.40625 -10.03125 C 25.476562 -9.988281 25.601562 -9.96875 25.78125 -9.96875 C 25.957031 -9.96875 26.082031 -9.988281 26.15625 -10.03125 C 26.3125 -11.3125 26.320312 -12.925781 26.1875 -14.875 C 26.050781 -16.832031 25.875 -18.820312 25.65625 -20.84375 C 25.445312 -22.875 25.234375 -24.828125 25.015625 -26.703125 C 24.804688 -28.578125 24.664062 -30.054688 24.59375 -31.140625 L 15.609375 -14.90625 C 15.722656 -14.789062 15.984375 -14.613281 16.390625 -14.375 C 16.796875 -14.144531 17.203125 -13.90625 17.609375 -13.65625 C 18.015625 -13.40625 18.421875 -13.164062 18.828125 -12.9375 C 19.234375 -12.707031 19.507812 -12.550781 19.65625 -12.46875 Z M 19.65625 -12.46875 "/></g></g></g><g fill="#c04f07" fill-opacity="1"><g transform="translate(123.69963, 209.999986)"><g><path d="M 2.84375 -21.40625 C 2.726562 -21.5625 2.515625 -21.820312 2.203125 -22.1875 C 1.890625 -22.550781 1.632812 -22.945312 1.4375 -23.375 C 1.25 -23.800781 1.15625 -24.21875 1.15625 -24.625 C 1.15625 -25.03125 1.445312 -25.3125 2.03125 -25.46875 C 2.257812 -25.582031 2.578125 -25.640625 2.984375 -25.640625 C 3.390625 -25.640625 3.613281 -25.582031 3.65625 -25.46875 L 11.78125 -5.921875 C 12.050781 -8.003906 12.382812 -10.109375 12.78125 -12.234375 C 13.1875 -14.359375 13.738281 -16.445312 14.4375 -18.5 C 15.132812 -20.550781 15.992188 -22.523438 17.015625 -24.421875 C 18.046875 -26.316406 19.296875 -28.035156 20.765625 -29.578125 C 21.191406 -30.078125 21.769531 -30.691406 22.5 -31.421875 C 23.238281 -32.160156 23.953125 -32.878906 24.640625 -33.578125 C 25.335938 -34.273438 25.945312 -34.875 26.46875 -35.375 C 27 -35.882812 27.28125 -36.140625 27.3125 -36.140625 L 29.75 -36.140625 C 29.988281 -35.742188 29.921875 -35.320312 29.546875 -34.875 C 29.179688 -34.4375 28.738281 -34.023438 28.21875 -33.640625 C 27.695312 -33.253906 27.164062 -32.90625 26.625 -32.59375 C 26.082031 -32.28125 25.753906 -32.109375 25.640625 -32.078125 C 23.117188 -29.554688 21.144531 -26.960938 19.71875 -24.296875 C 18.289062 -21.628906 17.1875 -18.84375 16.40625 -15.9375 C 15.632812 -13.039062 15.101562 -10.015625 14.8125 -6.859375 C 14.53125 -3.710938 14.347656 -0.398438 14.265625 3.078125 L 13.859375 3.25 C 13.742188 3.320312 13.597656 3.394531 13.421875 3.46875 C 13.253906 3.550781 13.09375 3.628906 12.9375 3.703125 C 12.78125 3.785156 12.664062 3.847656 12.59375 3.890625 C 12.46875 3.921875 12.304688 3.9375 12.109375 3.9375 C 11.921875 3.9375 11.8125 3.921875 11.78125 3.890625 Z M 2.84375 -21.40625 "/></g></g></g><g fill="#c04f07" fill-opacity="1"><g transform="translate(154.669572, 209.999986)"><g><path d="M 0.34375 -9.15625 C 0.269531 -9.425781 0.269531 -9.660156 0.34375 -9.859375 C 0.425781 -10.054688 0.5625 -10.222656 0.75 -10.359375 C 0.945312 -10.492188 1.160156 -10.585938 1.390625 -10.640625 C 1.617188 -10.703125 1.832031 -10.75 2.03125 -10.78125 C 2.414062 -10.863281 3.0625 -10.988281 3.96875 -11.15625 C 4.882812 -11.332031 5.890625 -11.535156 6.984375 -11.765625 C 8.085938 -12.003906 9.265625 -12.238281 10.515625 -12.46875 C 11.773438 -12.695312 12.972656 -12.914062 14.109375 -13.125 C 15.253906 -13.34375 16.28125 -13.53125 17.1875 -13.6875 C 18.101562 -13.84375 18.753906 -13.976562 19.140625 -14.09375 C 19.867188 -14.207031 20.332031 -14.140625 20.53125 -13.890625 C 20.726562 -13.640625 20.765625 -13.3125 20.640625 -12.90625 C 20.523438 -12.5 20.320312 -12.09375 20.03125 -11.6875 C 19.75 -11.28125 19.453125 -10.976562 19.140625 -10.78125 C 18.253906 -10.90625 17.191406 -10.890625 15.953125 -10.734375 C 14.710938 -10.578125 13.441406 -10.363281 12.140625 -10.09375 C 10.847656 -9.820312 9.546875 -9.53125 8.234375 -9.21875 C 6.921875 -8.914062 5.722656 -8.6875 4.640625 -8.53125 C 3.554688 -8.375 2.628906 -8.332031 1.859375 -8.40625 C 1.085938 -8.488281 0.582031 -8.738281 0.34375 -9.15625 Z M 0.34375 -9.15625 "/></g></g></g><g fill="#c04f07" fill-opacity="1"><g transform="translate(177.056092, 209.999986)"><g><path d="M 12.875 0.109375 C 12.945312 0.078125 13.03125 -0.320312 13.125 -1.09375 C 13.226562 -1.875 13.316406 -2.773438 13.390625 -3.796875 C 13.472656 -4.828125 13.550781 -5.890625 13.625 -6.984375 C 13.707031 -8.085938 13.765625 -8.988281 13.796875 -9.6875 C 13.796875 -10.113281 13.804688 -10.703125 13.828125 -11.453125 C 13.847656 -12.210938 13.859375 -13.054688 13.859375 -13.984375 C 13.859375 -14.910156 13.859375 -15.875 13.859375 -16.875 C 13.859375 -17.882812 13.859375 -18.832031 13.859375 -19.71875 C 13.859375 -20.601562 13.847656 -21.394531 13.828125 -22.09375 C 13.804688 -22.789062 13.796875 -23.296875 13.796875 -23.609375 C 13.796875 -23.722656 13.75 -23.929688 13.65625 -24.234375 C 13.5625 -24.546875 13.484375 -24.875 13.421875 -25.21875 C 13.367188 -25.570312 13.28125 -25.894531 13.15625 -26.1875 C 13.039062 -26.476562 12.945312 -26.703125 12.875 -26.859375 C 11.789062 -26.890625 10.6875 -26.804688 9.5625 -26.609375 C 8.445312 -26.421875 7.335938 -26.179688 6.234375 -25.890625 C 5.128906 -25.609375 4.035156 -25.367188 2.953125 -25.171875 C 1.867188 -24.972656 0.847656 -24.972656 -0.109375 -25.171875 C -0.347656 -25.671875 -0.101562 -26.203125 0.625 -26.765625 C 1.363281 -27.328125 2.4375 -27.820312 3.84375 -28.25 C 5.257812 -28.675781 6.90625 -29.023438 8.78125 -29.296875 C 10.65625 -29.566406 12.585938 -29.679688 14.578125 -29.640625 C 16.578125 -29.597656 18.550781 -29.382812 20.5 -29 C 22.457031 -28.613281 24.195312 -27.992188 25.71875 -27.140625 C 27.25 -26.296875 28.488281 -25.175781 29.4375 -23.78125 C 30.382812 -22.382812 30.859375 -20.664062 30.859375 -18.625 C 30.859375 -17.882812 30.734375 -17.117188 30.484375 -16.328125 C 30.234375 -15.535156 29.910156 -14.734375 29.515625 -13.921875 C 29.128906 -13.109375 28.6875 -12.320312 28.1875 -11.5625 C 27.6875 -10.8125 27.222656 -10.1875 26.796875 -9.6875 C 26.566406 -9.457031 26.195312 -9.078125 25.6875 -8.546875 C 25.1875 -8.023438 24.617188 -7.4375 23.984375 -6.78125 C 23.347656 -6.125 22.671875 -5.445312 21.953125 -4.75 C 21.234375 -4.0625 20.554688 -3.394531 19.921875 -2.75 C 19.285156 -2.113281 18.707031 -1.546875 18.1875 -1.046875 C 17.664062 -0.546875 17.269531 -0.160156 17 0.109375 C 16.914062 0.890625 16.796875 1.585938 16.640625 2.203125 C 16.484375 2.816406 16.238281 3.289062 15.90625 3.625 C 15.582031 3.957031 15.179688 4.113281 14.703125 4.09375 C 14.222656 4.070312 13.613281 3.828125 12.875 3.359375 C 12.21875 3.828125 11.507812 4.484375 10.75 5.328125 C 10 6.179688 9.207031 7.015625 8.375 7.828125 C 7.550781 8.640625 6.691406 9.273438 5.796875 9.734375 C 4.910156 10.203125 4.039062 10.242188 3.1875 9.859375 L 3.1875 8.234375 Z M 17 -3.1875 C 18.96875 -4 20.710938 -5.195312 22.234375 -6.78125 C 23.765625 -8.363281 24.972656 -10.09375 25.859375 -11.96875 C 26.753906 -13.851562 27.296875 -15.757812 27.484375 -17.6875 C 27.679688 -19.625 27.453125 -21.328125 26.796875 -22.796875 C 26.140625 -24.265625 25.015625 -25.394531 23.421875 -26.1875 C 21.835938 -26.976562 19.695312 -27.203125 17 -26.859375 Z M 17 -3.1875 "/></g></g></g><g fill="#c04f07" fill-opacity="1"><g transform="translate(210.055906, 209.999986)"><g><path d="M 27.84375 -5.109375 C 27.800781 -5.265625 27.671875 -5.539062 27.453125 -5.9375 C 27.242188 -6.34375 27.082031 -6.609375 26.96875 -6.734375 C 26.625 -6.878906 25.992188 -7.097656 25.078125 -7.390625 C 24.171875 -7.679688 23.195312 -8.007812 22.15625 -8.375 C 21.113281 -8.75 20.128906 -9.085938 19.203125 -9.390625 C 18.273438 -9.703125 17.613281 -9.914062 17.21875 -10.03125 C 17.144531 -10.070312 16.953125 -10.175781 16.640625 -10.34375 C 16.335938 -10.519531 15.988281 -10.710938 15.59375 -10.921875 C 15.207031 -11.140625 14.859375 -11.328125 14.546875 -11.484375 C 14.242188 -11.640625 14.035156 -11.71875 13.921875 -11.71875 C 13.335938 -11.71875 12.785156 -11.347656 12.265625 -10.609375 C 11.742188 -9.878906 11.210938 -8.984375 10.671875 -7.921875 C 10.128906 -6.859375 9.566406 -5.722656 8.984375 -4.515625 C 8.410156 -3.316406 7.753906 -2.222656 7.015625 -1.234375 C 6.285156 -0.253906 5.492188 0.503906 4.640625 1.046875 C 3.785156 1.585938 2.816406 1.703125 1.734375 1.390625 L 1.734375 -0.234375 C 1.972656 -0.503906 2.320312 -0.9375 2.78125 -1.53125 C 3.25 -2.132812 3.78125 -2.8125 4.375 -3.5625 C 4.976562 -4.320312 5.609375 -5.109375 6.265625 -5.921875 C 6.921875 -6.734375 7.535156 -7.523438 8.109375 -8.296875 C 8.691406 -9.066406 9.207031 -9.75 9.65625 -10.34375 C 10.101562 -10.945312 10.441406 -11.40625 10.671875 -11.71875 C 11.054688 -12.21875 11.125 -12.953125 10.875 -13.921875 C 10.625 -14.890625 10.238281 -15.914062 9.71875 -17 C 9.195312 -18.082031 8.632812 -19.171875 8.03125 -20.265625 C 7.4375 -21.367188 7.007812 -22.316406 6.75 -23.109375 C 6.5 -23.898438 6.519531 -24.46875 6.8125 -24.8125 C 7.101562 -25.164062 7.882812 -25.128906 9.15625 -24.703125 C 9.550781 -23.390625 10.144531 -22.035156 10.9375 -20.640625 C 11.726562 -19.253906 12.722656 -18.175781 13.921875 -17.40625 C 14.921875 -18.0625 15.863281 -18.9375 16.75 -20.03125 C 17.644531 -21.132812 18.476562 -22.390625 19.25 -23.796875 C 20.03125 -25.210938 20.738281 -26.710938 21.375 -28.296875 C 22.007812 -29.890625 22.585938 -31.457031 23.109375 -33 C 23.628906 -34.550781 24.082031 -36.019531 24.46875 -37.40625 C 24.863281 -38.800781 25.175781 -40 25.40625 -41 C 25.675781 -41.425781 26.03125 -41.765625 26.46875 -42.015625 C 26.914062 -42.265625 27.375 -42.46875 27.84375 -42.625 C 28.03125 -42.351562 28.160156 -41.664062 28.234375 -40.5625 C 28.316406 -39.46875 28.359375 -38.132812 28.359375 -36.5625 C 28.359375 -35 28.328125 -33.25 28.265625 -31.3125 C 28.210938 -29.382812 28.175781 -27.441406 28.15625 -25.484375 C 28.132812 -23.535156 28.144531 -21.632812 28.1875 -19.78125 C 28.226562 -17.925781 28.316406 -16.28125 28.453125 -14.84375 C 28.585938 -13.414062 28.796875 -12.253906 29.078125 -11.359375 C 29.367188 -10.472656 29.769531 -10.03125 30.28125 -10.03125 L 35.203125 -10.03125 L 35.203125 -7.140625 L 31.09375 -7.140625 C 30.550781 -7.140625 30.335938 -6.78125 30.453125 -6.0625 C 30.566406 -5.34375 30.851562 -4.441406 31.3125 -3.359375 C 31.78125 -2.273438 32.3125 -1.066406 32.90625 0.265625 C 33.507812 1.597656 34.023438 2.878906 34.453125 4.109375 C 34.878906 5.347656 35.117188 6.460938 35.171875 7.453125 C 35.234375 8.441406 34.957031 9.144531 34.34375 9.5625 C 34.21875 9.644531 33.941406 9.6875 33.515625 9.6875 C 33.097656 9.6875 32.8125 9.644531 32.65625 9.5625 C 32.539062 8.988281 32.25 8.003906 31.78125 6.609375 C 31.320312 5.222656 30.828125 3.742188 30.296875 2.171875 C 29.773438 0.609375 29.273438 -0.859375 28.796875 -2.234375 C 28.316406 -3.609375 28 -4.566406 27.84375 -5.109375 Z M 19.65625 -12.46875 C 19.851562 -12.351562 20.210938 -12.1875 20.734375 -11.96875 C 21.253906 -11.757812 21.8125 -11.519531 22.40625 -11.25 C 23.007812 -10.976562 23.601562 -10.734375 24.1875 -10.515625 C 24.769531 -10.304688 25.175781 -10.144531 25.40625 -10.03125 C 25.476562 -9.988281 25.601562 -9.96875 25.78125 -9.96875 C 25.957031 -9.96875 26.082031 -9.988281 26.15625 -10.03125 C 26.3125 -11.3125 26.320312 -12.925781 26.1875 -14.875 C 26.050781 -16.832031 25.875 -18.820312 25.65625 -20.84375 C 25.445312 -22.875 25.234375 -24.828125 25.015625 -26.703125 C 24.804688 -28.578125 24.664062 -30.054688 24.59375 -31.140625 L 15.609375 -14.90625 C 15.722656 -14.789062 15.984375 -14.613281 16.390625 -14.375 C 16.796875 -14.144531 17.203125 -13.90625 17.609375 -13.65625 C 18.015625 -13.40625 18.421875 -13.164062 18.828125 -12.9375 C 19.234375 -12.707031 19.507812 -12.550781 19.65625 -12.46875 Z M 19.65625 -12.46875 "/></g></g></g><g fill="#c04f07" fill-opacity="1"><g transform="translate(245.955528, 209.999986)"><g><path d="M 17.109375 2.203125 C 17.179688 0.0351562 17.171875 -2.132812 17.078125 -4.3125 C 16.984375 -6.5 16.859375 -8.675781 16.703125 -10.84375 C 16.546875 -13.007812 16.421875 -15.179688 16.328125 -17.359375 C 16.234375 -19.546875 16.222656 -21.707031 16.296875 -23.84375 C 15.953125 -23.757812 15.421875 -23.628906 14.703125 -23.453125 C 13.984375 -23.285156 13.171875 -23.09375 12.265625 -22.875 C 11.359375 -22.664062 10.390625 -22.4375 9.359375 -22.1875 C 8.335938 -21.9375 7.375 -21.703125 6.46875 -21.484375 C 5.5625 -21.273438 4.75 -21.082031 4.03125 -20.90625 C 3.3125 -20.726562 2.78125 -20.625 2.4375 -20.59375 C 2.007812 -20.476562 1.582031 -20.523438 1.15625 -20.734375 C 0.726562 -20.941406 0.34375 -21.164062 0 -21.40625 L 1.625 -23.03125 C 6.613281 -23.488281 11.492188 -24.441406 16.265625 -25.890625 C 21.046875 -27.347656 25.675781 -29.097656 30.15625 -31.140625 L 32.65625 -31.140625 C 32.769531 -30.910156 32.757812 -30.660156 32.625 -30.390625 C 32.488281 -30.117188 32.296875 -29.859375 32.046875 -29.609375 C 31.796875 -29.359375 31.535156 -29.15625 31.265625 -29 L 30.96875 -28.765625 L 19.609375 -24.65625 C 19.566406 -24.65625 19.535156 -24.273438 19.515625 -23.515625 C 19.492188 -22.765625 19.484375 -21.875 19.484375 -20.84375 C 19.484375 -19.820312 19.492188 -18.75 19.515625 -17.625 C 19.535156 -16.507812 19.566406 -15.601562 19.609375 -14.90625 C 19.609375 -14.632812 19.625 -14.070312 19.65625 -13.21875 C 19.695312 -12.375 19.742188 -11.398438 19.796875 -10.296875 C 19.859375 -9.191406 19.914062 -8.007812 19.96875 -6.75 C 20.03125 -5.5 20.085938 -4.3125 20.140625 -3.1875 C 20.203125 -2.070312 20.253906 -1.097656 20.296875 -0.265625 C 20.335938 0.566406 20.378906 1.117188 20.421875 1.390625 C 20.421875 1.929688 20.265625 2.421875 19.953125 2.859375 C 19.640625 3.304688 19.300781 3.609375 18.9375 3.765625 C 18.570312 3.921875 18.203125 3.898438 17.828125 3.703125 C 17.460938 3.515625 17.222656 3.015625 17.109375 2.203125 Z M 17.109375 2.203125 "/></g></g></g><g fill="#c04f07" fill-opacity="1"><g transform="translate(279.419297, 209.999986)"><g><path d="M 27.84375 -5.109375 C 27.800781 -5.265625 27.671875 -5.539062 27.453125 -5.9375 C 27.242188 -6.34375 27.082031 -6.609375 26.96875 -6.734375 C 26.625 -6.878906 25.992188 -7.097656 25.078125 -7.390625 C 24.171875 -7.679688 23.195312 -8.007812 22.15625 -8.375 C 21.113281 -8.75 20.128906 -9.085938 19.203125 -9.390625 C 18.273438 -9.703125 17.613281 -9.914062 17.21875 -10.03125 C 17.144531 -10.070312 16.953125 -10.175781 16.640625 -10.34375 C 16.335938 -10.519531 15.988281 -10.710938 15.59375 -10.921875 C 15.207031 -11.140625 14.859375 -11.328125 14.546875 -11.484375 C 14.242188 -11.640625 14.035156 -11.71875 13.921875 -11.71875 C 13.335938 -11.71875 12.785156 -11.347656 12.265625 -10.609375 C 11.742188 -9.878906 11.210938 -8.984375 10.671875 -7.921875 C 10.128906 -6.859375 9.566406 -5.722656 8.984375 -4.515625 C 8.410156 -3.316406 7.753906 -2.222656 7.015625 -1.234375 C 6.285156 -0.253906 5.492188 0.503906 4.640625 1.046875 C 3.785156 1.585938 2.816406 1.703125 1.734375 1.390625 L 1.734375 -0.234375 C 1.972656 -0.503906 2.320312 -0.9375 2.78125 -1.53125 C 3.25 -2.132812 3.78125 -2.8125 4.375 -3.5625 C 4.976562 -4.320312 5.609375 -5.109375 6.265625 -5.921875 C 6.921875 -6.734375 7.535156 -7.523438 8.109375 -8.296875 C 8.691406 -9.066406 9.207031 -9.75 9.65625 -10.34375 C 10.101562 -10.945312 10.441406 -11.40625 10.671875 -11.71875 C 11.054688 -12.21875 11.125 -12.953125 10.875 -13.921875 C 10.625 -14.890625 10.238281 -15.914062 9.71875 -17 C 9.195312 -18.082031 8.632812 -19.171875 8.03125 -20.265625 C 7.4375 -21.367188 7.007812 -22.316406 6.75 -23.109375 C 6.5 -23.898438 6.519531 -24.46875 6.8125 -24.8125 C 7.101562 -25.164062 7.882812 -25.128906 9.15625 -24.703125 C 9.550781 -23.390625 10.144531 -22.035156 10.9375 -20.640625 C 11.726562 -19.253906 12.722656 -18.175781 13.921875 -17.40625 C 14.921875 -18.0625 15.863281 -18.9375 16.75 -20.03125 C 17.644531 -21.132812 18.476562 -22.390625 19.25 -23.796875 C 20.03125 -25.210938 20.738281 -26.710938 21.375 -28.296875 C 22.007812 -29.890625 22.585938 -31.457031 23.109375 -33 C 23.628906 -34.550781 24.082031 -36.019531 24.46875 -37.40625 C 24.863281 -38.800781 25.175781 -40 25.40625 -41 C 25.675781 -41.425781 26.03125 -41.765625 26.46875 -42.015625 C 26.914062 -42.265625 27.375 -42.46875 27.84375 -42.625 C 28.03125 -42.351562 28.160156 -41.664062 28.234375 -40.5625 C 28.316406 -39.46875 28.359375 -38.132812 28.359375 -36.5625 C 28.359375 -35 28.328125 -33.25 28.265625 -31.3125 C 28.210938 -29.382812 28.175781 -27.441406 28.15625 -25.484375 C 28.132812 -23.535156 28.144531 -21.632812 28.1875 -19.78125 C 28.226562 -17.925781 28.316406 -16.28125 28.453125 -14.84375 C 28.585938 -13.414062 28.796875 -12.253906 29.078125 -11.359375 C 29.367188 -10.472656 29.769531 -10.03125 30.28125 -10.03125 L 35.203125 -10.03125 L 35.203125 -7.140625 L 31.09375 -7.140625 C 30.550781 -7.140625 30.335938 -6.78125 30.453125 -6.0625 C 30.566406 -5.34375 30.851562 -4.441406 31.3125 -3.359375 C 31.78125 -2.273438 32.3125 -1.066406 32.90625 0.265625 C 33.507812 1.597656 34.023438 2.878906 34.453125 4.109375 C 34.878906 5.347656 35.117188 6.460938 35.171875 7.453125 C 35.234375 8.441406 34.957031 9.144531 34.34375 9.5625 C 34.21875 9.644531 33.941406 9.6875 33.515625 9.6875 C 33.097656 9.6875 32.8125 9.644531 32.65625 9.5625 C 32.539062 8.988281 32.25 8.003906 31.78125 6.609375 C 31.320312 5.222656 30.828125 3.742188 30.296875 2.171875 C 29.773438 0.609375 29.273438 -0.859375 28.796875 -2.234375 C 28.316406 -3.609375 28 -4.566406 27.84375 -5.109375 Z M 19.65625 -12.46875 C 19.851562 -12.351562 20.210938 -12.1875 20.734375 -11.96875 C 21.253906 -11.757812 21.8125 -11.519531 22.40625 -11.25 C 23.007812 -10.976562 23.601562 -10.734375 24.1875 -10.515625 C 24.769531 -10.304688 25.175781 -10.144531 25.40625 -10.03125 C 25.476562 -9.988281 25.601562 -9.96875 25.78125 -9.96875 C 25.957031 -9.96875 26.082031 -9.988281 26.15625 -10.03125 C 26.3125 -11.3125 26.320312 -12.925781 26.1875 -14.875 C 26.050781 -16.832031 25.875 -18.820312 25.65625 -20.84375 C 25.445312 -22.875 25.234375 -24.828125 25.015625 -26.703125 C 24.804688 -28.578125 24.664062 -30.054688 24.59375 -31.140625 L 15.609375 -14.90625 C 15.722656 -14.789062 15.984375 -14.613281 16.390625 -14.375 C 16.796875 -14.144531 17.203125 -13.90625 17.609375 -13.65625 C 18.015625 -13.40625 18.421875 -13.164062 18.828125 -12.9375 C 19.234375 -12.707031 19.507812 -12.550781 19.65625 -12.46875 Z M 19.65625 -12.46875 "/></g></g></g></svg>